<svg xmlns="http://www.w3.org/2000/svg" width="48" height="48" viewBox="0 0 48 48">
  <g id="Attack_Icon" transform="translate(0 0)">
    <g id="Stat_Icon" transform="translate(-48 -545.011)">
      <g id="Daimond" transform="translate(-0.682 -2.059)">
        <g id="Shape2" transform="translate(72.682 547.07) rotate(45)" fill="#ffdc28">
          <path d="M 32.94112396240234 32.94112396240234 L 0.999994158744812 32.94112396240234 L 1.000003576278687 1.000003576278687 L 32.94112396240234 0.999994158744812 L 32.94112396240234 32.94112396240234 Z" stroke="none"/>
          <path d="M 2.000003814697266 2.000003814697266 L 2.000003814697266 31.94112396240234 L 31.94112396240234 31.94112396240234 L 31.94112396240234 2.000003814697266 L 2.000003814697266 2.000003814697266 M 3.814697265625e-06 3.814697265625e-06 L 33.94112396240234 3.814697265625e-06 L 33.94112396240234 33.94112396240234 L 3.814697265625e-06 33.94112396240234 L 3.814697265625e-06 3.814697265625e-06 Z" stroke="none" fill="#be820e"/>
        </g>
        <g id="Shape1" transform="translate(56 553.896)" fill="#ffdc28" stroke="#be820e" stroke-width="2">
          <rect width="33.503" height="35" stroke="none"/>
          <rect x="1" y="1" width="31.503" height="33" fill="none"/>
        </g>
      </g>
      <g id="Sword" transform="translate(60 557)" opacity="0.52">
        <g id="Group_348" data-name="Group 348">
          <path id="Path_126" data-name="Path 126" d="M33.956-501.728a40.555,40.555,0,0,1-1.574,4.494c-.743,1.814-3.129,4.824-5.6,7.08a46.524,46.524,0,0,1-5.733,4.487c-.606.4-1.236.8-1.4.9l-.3.174.425.43c.5.5.556.717.25.985-.275.231-.481.156-1.043-.405l-.475-.474-.106.212a4.547,4.547,0,0,1-1.212,1.3c-.362.3-1.449,1.346-2.411,2.318s-1.9,1.876-2.092,2c-.568.38-.637.355-1.48-.486a7.616,7.616,0,0,0-.774-.717c-.106,0-.431-.517-.431-.679.006-.5.493-1.115,2.5-3.154.912-.929,1.867-1.938,2.123-2.244a4.365,4.365,0,0,1,.893-.841l.419-.281-.468-.468c-.55-.548-.624-.754-.393-1.028.268-.306.481-.249.987.249l.425.418.094-.143a41.431,41.431,0,0,1,2.8-4.076,34.525,34.525,0,0,1,8.112-7.859,8.744,8.744,0,0,1,1.842-1,23.821,23.821,0,0,1,4.446-1.458H34Zm-5.97,5.422a86.02,86.02,0,0,0-7.032,6.831c-1.4,1.471-1.742,1.857-1.742,1.994s.031.174.156.187.562-.368,2.592-2.312c3.884-3.714,5.577-5.515,6.42-6.855C28.536-496.711,28.442-496.674,27.986-496.306Z" transform="translate(-10 501.99)" fill="#0c0c0d"/>
        </g>
      </g>
    </g>
  </g>
</svg>
