<svg xmlns="http://www.w3.org/2000/svg" width="48" height="48" viewBox="0 0 48 48">
  <g id="Cost_Icon" transform="translate(0 0)">
    <g id="Stat_Icon" transform="translate(-48 -545.011)">
      <g id="Daimond" transform="translate(-0.682 -2.059)">
        <g id="Shape2" transform="translate(72.682 547.07) rotate(45)" fill="#498bff">
          <path d="M 32.94112396240234 32.94112396240234 L 0.999994158744812 32.94112396240234 L 1.000003576278687 1.000003576278687 L 32.94112396240234 0.999994158744812 L 32.94112396240234 32.94112396240234 Z" stroke="none"/>
          <path d="M 2.000003814697266 2.000003814697266 L 2.000003814697266 31.94112396240234 L 31.94112396240234 31.94112396240234 L 31.94112396240234 2.000003814697266 L 2.000003814697266 2.000003814697266 M 3.814697265625e-06 3.814697265625e-06 L 33.94112396240234 3.814697265625e-06 L 33.94112396240234 33.94112396240234 L 3.814697265625e-06 33.94112396240234 L 3.814697265625e-06 3.814697265625e-06 Z" stroke="none" fill="#76edff"/>
        </g>
        <g id="Shape1" transform="translate(56 553.896)" fill="#498bff" stroke="#76edff" stroke-width="2">
          <rect width="33.503" height="35" stroke="none"/>
          <rect x="1" y="1" width="31.503" height="33" fill="none"/>
        </g>
      </g>
      <g id="Coins" transform="translate(60 557)" opacity="0.5">
        <path id="Path_124" data-name="Path 124" d="M27.5,10c-4.143,0-7.5,1.4-7.5,3.125s3.357,3.125,7.5,3.125,7.5-1.4,7.5-3.125S31.643,10,27.5,10ZM20,14.375v2.5C20,18.625,23.375,20,27.5,20S35,18.625,35,16.875v-2.5c0,1.75-3.375,3.125-7.5,3.125S20,16.125,20,14.375Zm15,3.633c0,1.875-3.375,3.242-7.5,3.242S20,19.875,20,18.125v1.992c3,.375,5.633,1.64,6.133,3.515H27.5c4.125,0,7.5-1.375,7.5-3.125ZM17.5,21.25c-4.125,0-7.5,1.375-7.5,3.125S13.375,27.5,17.5,27.5,25,26.125,25,24.375,21.625,21.25,17.5,21.25Zm17.5.625C35,23.625,31.625,25,27.5,25H26.25v2.5H27.5c4.125,0,7.5-1.375,7.5-3.125Zm-25,3.75v2.5c0,1.75,3.375,3.125,7.5,3.125S25,29.875,25,28.125v-2.5c0,1.75-3.375,3.125-7.5,3.125S10,27.375,10,25.625Zm25,0c0,1.75-3.375,3.125-7.5,3.125H26.25v2.5H27.5c4.125,0,7.5-1.375,7.5-3.125Zm-25,3.75v2.5C10,33.625,13.375,35,17.5,35S25,33.625,25,31.875v-2.5c0,1.75-3.375,3.125-7.5,3.125S10,31.125,10,29.375Z" transform="translate(-10 -10)" fill="#0c0c0d"/>
      </g>
    </g>
  </g>
</svg>
