<svg id="Health_Icon" xmlns="http://www.w3.org/2000/svg" width="48" height="48" viewBox="0 0 48 48">
  <g id="Stat_Icon">
    <g id="Daimond" transform="translate(0 0)">
      <g id="Shape2" transform="translate(24 0) rotate(45)" fill="#ff4e39">
        <path d="M 32.94112396240234 32.94112396240234 L 1.000003933906555 32.94112396240234 L 1.000003933906555 1.000003933906555 L 32.94112396240234 1.000003933906555 L 32.94112396240234 32.94112396240234 Z" stroke="none"/>
        <path d="M 2.000003814697266 2.000003814697266 L 2.000003814697266 31.94112396240234 L 31.94112396240234 31.94112396240234 L 31.94112396240234 2.000003814697266 L 2.000003814697266 2.000003814697266 M 3.814697265625e-06 3.814697265625e-06 L 33.94112396240234 3.814697265625e-06 L 33.94112396240234 33.94112396240234 L 3.814697265625e-06 33.94112396240234 L 3.814697265625e-06 3.814697265625e-06 Z" stroke="none" fill="#74241b"/>
      </g>
      <g id="Shape1" transform="translate(7.318 6.827)" fill="#ff4e39" stroke="#74241b" stroke-width="2">
        <rect width="33.503" height="35" stroke="none"/>
        <rect x="1" y="1" width="31.503" height="33" fill="none"/>
      </g>
    </g>
    <g id="Component_52" data-name="Component 52" transform="translate(12 11.989)" opacity="0.5">
      <rect id="rectangle" width="24" height="24" fill="none"/>
      <path id="path" d="M12,8A4.932,4.932,0,0,0,7.5,5,4.413,4.413,0,0,0,3,9.5c0,3.529,3.793,6.258,9,11.5,5.207-5.242,9-7.971,9-11.5A4.413,4.413,0,0,0,16.5,5,4.93,4.93,0,0,0,12,8Z" transform="translate(0 0)" fill-rule="evenodd"/>
    </g>
  </g>
</svg>
