<svg id="Heartstone" xmlns="http://www.w3.org/2000/svg" width="32" height="32" viewBox="0 0 32 32">
  <path id="Path_123" data-name="Path 123" d="M42,21.274l-6.034-3.627a6.693,6.693,0,0,0-1.371-2.356l1.1-3.989L31.577,12.57a7.347,7.347,0,0,0-2.1-1.178L26,5.5l-3.657,6.164s-.731.333-2.194.906l-3.84-1.631L17.5,15.2a7.839,7.839,0,0,0-1.189,2.537L10,21.274l6.126,3.537a10.27,10.27,0,0,0,1.1,2.359l-1.371,3.9,4.206-1A17.967,17.967,0,0,0,22.8,31.7l3.109,5.8,3.474-5.8a24.751,24.751,0,0,0,2.743-1.359l4.114,1.087-1.28-4.171a27.029,27.029,0,0,0,1.463-2.627ZM30.48,26.531a7.652,7.652,0,0,1-3.931,1.54s-3.863.5-5.211-1.268l3.017-1.087s4.594-1.495,4.663-3.084a4.392,4.392,0,0,0-.549-4.8l-.183-.453-.366.091a3.78,3.78,0,0,0-3.749,1.087,2.336,2.336,0,0,0,.274,2.812s.686.385.64-.362l-.183-1s2.789-1.314,2.834,2.9c0,0-2.263,2.22-4.663.815,0,0-3.04-2.676-2.469-4.8l-.091-1.087,2.011-1.721,2.651-1.54.914.181.823-.362.457.544,2.56.634s2.263,2.31,2.286,3.265C32.217,18.827,33.863,23.833,30.48,26.531Z" transform="translate(-10 -5.5)" fill="#0c0c0d"/>
</svg>
