<svg id="icon_attack" xmlns="http://www.w3.org/2000/svg" width="48" height="48" viewBox="0 0 48 48">
  <rect id="background" width="48" height="48" fill="rgba(0,0,0,0)"/>
  <path id="icon_path" d="M13.046,27.616l8.145,8.365-3.256,3.345L21.2,42.673l-3.259,3.345-5.7-5.855-6.52,6.692L2.454,43.51l6.52-6.695-5.7-5.852,3.259-3.345,3.259,3.343,3.256-3.345ZM3.712,3l8.172.007L39.118,30.963l3.261-3.345,3.259,3.345-5.7,5.855,6.517,6.692L43.2,46.855l-6.52-6.692-5.7,5.855-3.259-3.345,3.259-3.347L3.719,11.353ZM37.03,3l8.165.007,0,8.334L35.86,20.926,27.71,12.564Z" transform="translate(-0.388 -1.174)"/>
</svg>
