<svg id="icon_health" xmlns="http://www.w3.org/2000/svg" width="48" height="48" viewBox="0 0 48 48">
  <rect id="background" width="48" height="48" fill="rgba(0,0,0,0)"/>
  <path id="icon_path" d="M42.977,8.951C41.206,5.316,36.1,2.342,30.168,4.073a13.047,13.047,0,0,0-7.019,4.983A13.047,13.047,0,0,0,16.13,4.073C10.182,2.368,5.092,5.316,3.321,8.951.836,14.04,1.867,19.764,6.388,25.964c3.543,4.851,8.605,9.769,15.955,15.479a1.322,1.322,0,0,0,1.626,0c7.336-5.7,12.412-10.575,15.955-15.479,4.508-6.2,5.539-11.923,3.054-17.013Z" transform="translate(1.313 1.148)"/>
</svg>
