<svg id="icon_coins" xmlns="http://www.w3.org/2000/svg" width="48" height="47.634" viewBox="0 0 48 47.634">
  <rect id="background" width="46.906" height="46.906" fill="rgba(0,0,0,0)"/>
  <path id="icon_path" d="M33.058.189C25.1.189,18.64,3.749,18.64,8.146S25.1,16.1,33.058,16.1s14.418-3.562,14.418-7.959S41.019.187,33.058.187ZM47.476,10.51c0,4.4-6.455,7.959-14.418,7.959-7.94,0-14.381-3.523-14.418-7.9v3.113c0,1.879,1.2,3.6,3.174,4.96a18.821,18.821,0,0,1,5.246,2.248,24.384,24.384,0,0,0,6,.749c7.963,0,14.418-3.56,14.418-7.957Zm0,5.536c0,4.4-6.455,7.959-14.418,7.959a25.552,25.552,0,0,1-2.825-.173,8.027,8.027,0,0,1,1.441,3.287c.459.026.913.057,1.384.057,7.963,0,14.418-3.56,14.418-7.957ZM14.6,20.486C6.642,20.486.187,24.047.187,28.445S6.644,36.4,14.6,36.4s14.418-3.562,14.418-7.959S22.565,20.486,14.6,20.486Zm32.871,1.1c0,4.4-6.455,7.959-14.418,7.959-.463,0-.932-.033-1.384-.059-.02.138-.031.323-.057.461a2.7,2.7,0,0,1,.172.867v1.845c.419.02.84.055,1.27.055,7.963,0,14.418-3.56,14.418-7.957Zm0,5.536c0,4.4-6.455,7.959-14.418,7.959-.463,0-.932-.033-1.384-.059-.02.138-.031.323-.057.461a2.685,2.685,0,0,1,.172.867v1.845c.419.02.84.055,1.27.055,7.963,0,14.418-3.56,14.418-7.957ZM29.022,30.809c0,4.4-6.455,7.959-14.418,7.959-7.94,0-14.381-3.523-14.418-7.9v3.115c0,4.4,6.453,7.959,14.418,7.959s14.418-3.562,14.418-7.959Zm0,5.536c0,4.4-6.455,7.959-14.418,7.959C6.664,44.3.224,40.781.187,36.4v3.115c0,4.4,6.453,7.959,14.418,7.959s14.418-3.562,14.418-7.959Z" transform="translate(0.524 0.158)"/>
</svg>
